HIERARCHY
ROOT Hips
{
	OFFSET 0.000000 0.000000 0.000000
	CHANNELS 6 Xposition Yposition Zposition Zrotation Yrotation Xrotation 
	JOINT LowerBack
	{
		OFFSET 0.000000 0.000000 0.000000
		CHANNELS 3 Zrotation Yrotation Xrotation
		JOINT Spine
		{
			OFFSET 0.028270 2.035590 -0.193380
			CHANNELS 3 Zrotation Yrotation Xrotation
			JOINT Spine1
			{
				OFFSET 0.056720 2.048850 -0.042750
				CHANNELS 3 Zrotation Yrotation Xrotation
				JOINT Neck
				{
					OFFSET 0.000000 0.000000 0.000000
					CHANNELS 3 Zrotation Yrotation Xrotation
					JOINT Neck1
					{
						OFFSET -0.054170 1.746240 0.172020
						CHANNELS 3 Zrotation Yrotation Xrotation
						JOINT Head
						{
							OFFSET 0.104070 1.761360 -0.123970
							CHANNELS 3 Zrotation Yrotation Xrotation
							End Site
							{
								OFFSET 0.000000 0.000000 0.000000
							}
						}
					}
				}
				JOINT LeftShoulder
				{
					OFFSET 0.000000 0.000000 0.000000
					CHANNELS 3 Zrotation Yrotation Xrotation
					JOINT LeftArm
					{
						OFFSET 3.362410 1.200890 -0.311210
						CHANNELS 3 Zrotation Yrotation Xrotation
						JOINT LeftForeArm
						{
							OFFSET 4.983000 -0.000000 -0.000000
							CHANNELS 3 Zrotation Yrotation Xrotation
							JOINT LeftHand
							{
								OFFSET 3.483560 -0.000000 -0.000000
								CHANNELS 3 Zrotation Yrotation Xrotation
								JOINT LeftFingerBase
								{
									OFFSET 0.000000 0.000000 0.000000
									CHANNELS 3 Zrotation Yrotation Xrotation
									JOINT LeftHandIndex1
									{
										OFFSET 0.715260 -0.000000 -0.000000
										CHANNELS 3 Zrotation Yrotation Xrotation
										End Site
										{
											OFFSET 0.000000 0.000000 0.000000
										}
									}
								}
								JOINT LThumb
								{
									OFFSET 0.000000 0.000000 0.000000
									CHANNELS 3 Zrotation Yrotation Xrotation
									End Site
									{
										OFFSET 0.000000 0.000000 0.000000
									}
								}
							}
						}
					}
				}
				JOINT RightShoulder
				{
					OFFSET 0.000000 0.000000 0.000000
					CHANNELS 3 Zrotation Yrotation Xrotation
					JOINT RightArm
					{
						OFFSET -3.136600 1.374050 -0.404650
						CHANNELS 3 Zrotation Yrotation Xrotation
						JOINT RightForeArm
						{
							OFFSET -5.241900 -0.000000 -0.000000
							CHANNELS 3 Zrotation Yrotation Xrotation
							JOINT RightHand
							{
								OFFSET -3.444170 -0.000000 -0.000000
								CHANNELS 3 Zrotation Yrotation Xrotation
								JOINT RightFingerBase
								{
									OFFSET 0.000000 0.000000 0.000000
									CHANNELS 3 Zrotation Yrotation Xrotation
									JOINT RightHandIndex1
									{
										OFFSET -0.622530 -0.000000 -0.000000
										CHANNELS 3 Zrotation Yrotation Xrotation
										End Site
										{
											OFFSET 0.000000 0.000000 0.000000
										}
									}
								}
								JOINT RThumb
								{
									OFFSET 0.000000 0.000000 0.000000
									CHANNELS 3 Zrotation Yrotation Xrotation
									End Site
									{
										OFFSET 0.000000 0.000000 0.000000
									}
								}
							}
						}
					}
				}
			}
		}
	}
}
}
MOTION
Frames: 17
Frame Time: 0.008333
-10.954822 17.816858 -1.170546 -142.563972 87.774485 -138.802614 0.855529 -6.572759 -3.183536 0.338490 -6.731074 -2.753776 -3.941644 -6.765079 2.987557 8.910148 -22.316265 -10.953748 -1.092259 -0.024118 -0.808751 0.000000 0.000000 0.000000 9.242029 13.923250 -0.813298 -50.916884 -11.039561 -4.012851 -0.621266 -66.165359 -0.109896 16.151322 1.151167 0.111225 -0.239034 0.388609 0.000000 0.000000 0.000000 0.000000 0.000000 0.000000 0.000000 9.328617 -22.016509 0.838873 80.869439 -32.927237 -10.906769 4.810470 21.553831 0.023321 3.906382 10.133457 0.335651 0.128275 0.002007 -0.000000 0.000000 0.000000 0.000000 0.000000 0.000000 0.000000 
-10.717197 17.890843 -1.145937 -145.397151 88.097170 -142.013565 0.673841 -6.636466 -3.286430 0.340104 -6.782149 -2.767353 -3.765720 -6.826893 3.021169 8.618315 -22.467456 -10.807392 -1.013494 -0.020060 -0.766312 0.000000 0.000000 0.000000 9.471124 14.000764 -0.822146 -50.833180 -10.222257 -4.132990 -0.627491 -65.643553 -0.107231 15.899154 1.156291 0.110785 -0.235993 0.384741 0.000000 0.000000 0.000000 0.000000 0.000000 0.000000 0.000000 8.874093 -22.199504 0.797995 81.047023 -33.665051 -11.019479 4.862349 21.771935 0.020749 4.352610 9.196807 0.340326 0.127700 0.006664 -0.000000 0.000000 0.000000 0.000000 0.000000 0.000000 0.000000 
-10.481892 17.954746 -1.124103 -147.597604 88.468497 -144.587683 0.536419 -6.667846 -3.353563 0.344703 -6.803455 -2.777112 -3.607449 -6.857891 3.045493 8.341093 -22.597793 -10.688340 -0.937308 -0.015759 -0.732176 0.000000 0.000000 0.000000 9.599214 14.098104 -0.815551 -50.731656 -9.386464 -4.165842 -0.638375 -65.132872 -0.104779 15.719589 1.111658 0.103855 -0.234603 0.380539 0.000000 0.000000 0.000000 0.000000 0.000000 0.000000 0.000000 8.431845 -22.337966 0.773720 81.209314 -34.282238 -11.033072 4.910174 21.993716 0.017857 4.826652 8.202392 0.337196 0.126650 0.011936 -0.000000 0.000000 0.000000 0.000000 0.000000 0.000000 0.000000 
-10.249321 18.008043 -1.104723 -149.188498 88.884915 -146.556955 0.433801 -6.670551 -3.370029 0.349558 -6.798182 -2.779050 -3.470837 -6.860947 3.061120 8.094024 -22.711011 -10.598072 -0.866130 -0.011374 -0.706729 0.000000 0.000000 0.000000 9.640355 14.213598 -0.795953 -50.611103 -8.534661 -4.116616 -0.653248 -64.639499 -0.102602 15.620694 1.018221 0.090836 -0.234902 0.376055 0.000000 0.000000 0.000000 0.000000 0.000000 0.000000 0.000000 8.029061 -22.439200 0.763302 81.342814 -34.769328 -10.938892 4.953771 22.214507 0.014668 5.341080 7.164959 0.326463 0.125012 0.017770 -0.000000 0.000000 0.000000 0.000000 0.000000 0.000000 0.000000 
-10.019500 18.050376 -1.087389 -149.938882 89.328122 -147.691520 0.362092 -6.650649 -3.332828 0.353961 -6.772340 -2.771547 -3.359106 -6.841945 3.069035 7.888846 -22.804943 -10.534736 -0.803262 -0.007210 -0.689361 0.000000 0.000000 0.000000 9.609501 14.342431 -0.765828 -50.477792 -7.667217 -3.993667 -0.671867 -64.161401 -0.100671 15.601269 0.882112 0.072426 -0.236797 0.371218 0.000000 0.000000 0.000000 0.000000 0.000000 0.000000 0.000000 7.690612 -22.505648 0.762847 81.441837 -35.127032 -10.774842 4.994678 22.428582 0.011211 5.914699 6.094372 0.307727 0.122704 0.024030 -0.000000 0.000000 0.000000 0.000000 0.000000 0.000000 0.000000 
-9.792385 18.081478 -1.071297 -150.064649 89.793494 -148.213055 0.297028 -6.613332 -3.236279 0.352510 -6.729530 -2.752284 -3.273775 -6.804345 3.071087 7.735762 -22.880281 -10.495116 -0.750696 -0.003475 -0.679121 0.000000 0.000000 0.000000 9.527904 14.482018 -0.728178 -50.343201 -6.787130 -3.810016 -0.693846 -63.687067 -0.098894 15.650504 0.713397 0.049923 -0.240011 0.365893 0.000000 0.000000 0.000000 0.000000 0.000000 0.000000 0.000000 7.436448 -22.542578 0.768377 81.503051 -35.355000 -10.562298 5.033196 22.624664 0.007553 6.547799 5.008747 0.280087 0.119736 0.030532 -0.000000 0.000000 0.000000 0.000000 0.000000 0.000000 0.000000 
-9.567820 18.101134 -1.055529 29.262102 89.686826 30.705120 0.210855 -6.553568 -3.082365 0.337119 -6.662954 -2.721234 -3.216395 -6.740923 3.069577 7.640881 -22.935534 -10.474696 -0.709818 -0.000358 -0.674645 0.000000 0.000000 0.000000 9.415841 14.636348 -0.686020 -50.220745 -5.896253 -3.582001 -0.719057 -63.199590 -0.097128 15.750821 0.525465 0.024723 -0.244131 0.359865 0.000000 0.000000 0.000000 0.000000 0.000000 0.000000 0.000000 7.279008 -22.547505 0.777060 81.528938 -35.457528 -10.336754 5.070045 22.792462 0.003798 7.233882 3.928206 0.242345 0.116216 0.036997 -0.000000 0.000000 0.000000 0.000000 0.000000 0.000000 0.000000 
-9.345612 18.109165 -1.039319 36.874882 89.471840 37.886810 0.157556 -6.564306 -2.860223 0.340166 -6.667938 -2.670229 -3.175777 -6.750485 3.065368 7.601210 -22.970138 -10.467094 -0.682639 0.001890 -0.674390 0.000000 0.000000 0.000000 9.289612 14.752302 -0.636262 -50.134418 -5.023597 -3.322553 -0.748896 -62.672433 -0.095296 15.879074 0.334266 -0.001265 -0.249017 0.353277 0.000000 0.000000 0.000000 0.000000 0.000000 0.000000 0.000000 7.225003 -22.570117 0.775130 81.529393 -35.448379 -10.134036 5.102619 22.926275 0.000010 7.953819 2.878414 0.194600 0.112023 0.043494 -0.000000 0.000000 0.000000 0.000000 0.000000 0.000000 0.000000 
-9.125173 18.105409 -1.021874 36.472335 88.946280 37.055166 -0.012796 -6.495262 -2.609648 0.294679 -6.586229 -2.615971 -3.167056 -6.668703 3.063485 7.620539 -22.982449 -10.470028 -0.666461 0.003416 -0.677072 0.000000 0.000000 0.000000 9.161143 14.921570 -0.588206 -50.077144 -4.139082 -3.055968 -0.782413 -62.094998 -0.093128 16.010113 0.155747 -0.025665 -0.253737 0.345366 0.000000 0.000000 0.000000 0.000000 0.000000 0.000000 0.000000 7.266377 -22.529690 0.777741 81.510323 -35.329360 -9.986616 5.134381 23.022818 -0.003556 8.683161 1.883970 0.137759 0.107805 0.049129 -0.000000 0.000000 0.000000 0.000000 0.000000 0.000000 0.000000 
-8.906618 18.089523 -1.002830 38.409980 88.517545 38.551527 -0.204174 -6.446171 -2.313597 0.244362 -6.522497 -2.549192 -3.177384 -6.604172 3.063337 7.688347 -22.973404 -10.479374 -0.661959 0.004119 -0.681926 0.000000 0.000000 0.000000 9.034748 15.088673 -0.535848 -50.066135 -3.282412 -2.793772 -0.821774 -61.441478 -0.090609 16.118451 0.006391 -0.046065 -0.258190 0.336404 0.000000 0.000000 0.000000 0.000000 0.000000 0.000000 0.000000 7.396264 -22.480489 0.771478 81.485966 -35.116063 -9.916443 5.160688 23.089340 -0.006809 9.385626 0.975171 0.074920 0.103472 0.054006 -0.000000 0.000000 0.000000 0.000000 0.000000 0.000000 0.000000 
-8.689191 18.061380 -0.981910 40.784710 88.122941 40.501687 -0.429928 -6.402014 -2.007883 0.183826 -6.461115 -2.478269 -3.205147 -6.540823 3.066941 7.796006 -22.945599 -10.492866 -0.667436 0.004074 -0.687998 0.000000 0.000000 0.000000 8.908569 15.264150 -0.479313 -50.098710 -2.453954 -2.543826 -0.868086 -60.702809 -0.087638 16.181344 -0.099881 -0.060067 -0.262032 0.326198 0.000000 0.000000 0.000000 0.000000 0.000000 0.000000 0.000000 7.599174 -22.416057 0.756658 81.461388 -34.826704 -9.930554 5.179890 23.140439 -0.009580 10.023996 0.181390 0.010786 0.099286 0.057809 -0.000000 0.000000 0.000000 0.000000 0.000000 0.000000 0.000000 
-8.472751 18.020724 -0.959287 43.261533 87.757554 42.580014 -0.679891 -6.359995 -1.703440 0.115187 -6.400075 -2.406181 -3.248141 -6.476613 3.074513 7.934874 -22.902666 -10.511180 -0.681331 0.003415 -0.695409 0.000000 0.000000 0.000000 8.773995 15.451901 -0.416999 -50.167108 -1.665381 -2.311287 -0.922669 -59.873008 -0.084202 16.182005 -0.152111 -0.065973 -0.265053 0.314700 0.000000 0.000000 0.000000 0.000000 0.000000 0.000000 0.000000 7.860502 -22.337585 0.733189 81.440550 -34.471010 -10.022301 5.189004 23.193889 -0.011718 10.561153 -0.469310 -0.048440 0.095407 0.060309 -0.000000 0.000000 0.000000 0.000000 0.000000 0.000000 0.000000 
-8.257249 17.967401 -0.935536 45.614522 87.421830 44.568945 -0.936239 -6.317027 -1.407932 0.042242 -6.337618 -2.335478 -3.304509 -6.409783 3.085595 8.096550 -22.850976 -10.537120 -0.702077 0.002315 -0.704878 0.000000 0.000000 0.000000 8.617026 15.655243 -0.347175 -50.259326 -0.927426 -2.093993 -0.986748 -58.953658 -0.080328 16.110429 -0.144778 -0.062782 -0.267159 0.301919 0.000000 0.000000 0.000000 0.000000 0.000000 0.000000 0.000000 8.166114 -22.248676 0.701606 81.420905 -34.054127 -10.163624 5.184788 23.269213 -0.013107 10.963325 -0.950204 -0.096257 0.091943 0.061342 -0.000000 0.000000 0.000000 0.000000 0.000000 0.000000 0.000000 
-8.042571 17.901422 -0.911412 47.672610 87.116436 46.311780 -1.177997 -6.269182 -1.133461 -0.030631 -6.271345 -2.269727 -3.373580 -6.338005 3.098918 8.274934 -22.795347 -10.574637 -0.729072 0.000872 -0.717360 0.000000 0.000000 0.000000 8.422442 15.873934 -0.268419 -50.361036 -0.243973 -1.882715 -1.061197 -57.953901 -0.076065 15.965777 -0.079045 -0.050893 -0.268382 0.287899 0.000000 0.000000 0.000000 0.000000 0.000000 0.000000 0.000000 8.507249 -22.150530 0.662996 81.394089 -33.581126 -10.324303 5.164756 23.387524 -0.013680 11.207500 -1.243801 -0.126965 0.088957 0.060802 -0.000000 0.000000 0.000000 0.000000 0.000000 0.000000 0.000000 
-7.828896 17.822945 -0.887993 49.262184 86.842403 47.642307 -1.382669 -6.211710 -0.883025 -0.099174 -6.198080 -2.210813 -3.455967 -6.258107 3.112404 8.466761 -22.739499 -10.628831 -0.762476 -0.000855 -0.734186 0.000000 0.000000 0.000000 8.175732 16.105358 -0.179886 -50.458996 0.384786 -1.663577 -1.146457 -56.886879 -0.071499 15.755230 0.037370 -0.031706 -0.268828 0.272724 0.000000 0.000000 0.000000 0.000000 0.000000 0.000000 0.000000 8.880388 -22.042949 0.619132 81.348140 -33.048908 -10.468397 5.127108 23.564780 -0.013419 11.280411 -1.340153 -0.137063 0.086477 0.058640 -0.000000 0.000000 0.000000 0.000000 0.000000 0.000000 0.000000 
-7.616624 17.732376 -0.866575 50.228629 86.602393 48.400606 -1.527660 -6.139554 -0.644236 -0.159327 -6.114201 -2.157564 -3.552266 -6.166379 3.123838 8.670261 -22.690435 -10.706063 -0.802032 -0.002737 -0.757176 0.000000 0.000000 0.000000 7.864357 16.346619 -0.081769 -50.546211 0.956657 -1.418997 -1.242463 -55.764686 -0.066719 15.494306 0.188526 -0.008017 -0.268660 0.256569 0.000000 0.000000 0.000000 0.000000 0.000000 0.000000 0.000000 9.282425 -21.929980 0.572669 81.263848 -32.440359 -10.535702 5.070531 23.800668 -0.012353 11.170892 -1.231735 -0.124851 0.084534 0.054880 -0.000000 0.000000 0.000000 0.000000 0.000000 0.000000 0.000000 
-7.406043 17.630388 -0.848205 50.431427 86.389933 48.452946 -1.598605 -6.046828 -0.416979 -0.209106 -6.014694 -2.111194 -3.665104 -6.057825 3.130153 8.887824 -22.643428 -10.810041 -0.849816 -0.004908 -0.787301 0.000000 0.000000 0.000000 7.487157 16.586285 0.024576 -50.622504 1.488034 -1.130950 -1.348459 -54.602105 -0.061795 15.203014 0.354726 0.016971 -0.268055 0.239552 0.000000 0.000000 0.000000 0.000000 0.000000 0.000000 0.000000 9.720676 -21.802823 0.526439 81.126915 -31.746575 -10.508908 4.995950 24.096300 -0.010592 10.887558 -0.936164 -0.093130 0.083150 0.049601 -0.000000 0.000000 0.000000 0.000000 0.000000 0.000000 0.000000 
